<svg preserveAspectRatio="none" width="100%" height="100%" overflow="visible" style="display: block;" viewBox="0 0 114 114" fill="none" xmlns="http://www.w3.org/2000/svg">
<g id="Frame" clip-path="url(#clip0_8_366)">
<g id="Vector">
</g>
<path id="Vector_2" fill-rule="evenodd" clip-rule="evenodd" d="M52.7694 17.5237L80.4812 39.4763L85.9223 56.9995L59.9984 61.9523L29.8986 34.5116L36.2924 21.3785L52.7694 17.5237Z" stroke="var(--stroke-0, #E1FCAD)" stroke-width="4"/>
<path id="Vector_3" d="M36.2919 21.3785L62.9047 44.1788" stroke="var(--stroke-0, #E1FCAD)" stroke-width="4" stroke-linecap="round"/>
<path id="Vector_4" d="M59.9984 61.9523L62.9052 43.0645L80.4809 39.4763" stroke="var(--stroke-0, #E1FCAD)" stroke-width="4" stroke-linecap="round"/>
<path id="Vector_5" d="M59.3584 73.6791L64.7881 90.4951L37.0524 95.8989L9.5 68.9082L15.605 53.7351L28.5677 50.7146" stroke="var(--stroke-0, #E1FCAD)" stroke-width="4" stroke-linecap="round"/>
<path id="Vector_6" d="M15.6051 53.7344L41.0495 77.7995" stroke="var(--stroke-0, #E1FCAD)" stroke-width="4" stroke-linecap="round"/>
<path id="Vector_7" d="M37.0526 94.6789L41.5304 76.3145L59.3532 73.7283" stroke="var(--stroke-0, #E1FCAD)" stroke-width="4" stroke-linecap="round"/>
<path id="Vector_8" fill-rule="evenodd" clip-rule="evenodd" d="M82.8561 70.3183L80.75 87.3998L102.686 83.1214L98.0431 66.9453L82.8561 70.3183Z" stroke="var(--stroke-0, #E1FCAD)" stroke-width="4"/>
</g>
<defs>
<clipPath id="clip0_8_366">
<rect width="114" height="114" fill="white"/>
</clipPath>
</defs>
</svg>
