<svg preserveAspectRatio="none" width="100%" height="100%" overflow="visible" style="display: block;" viewBox="0 0 156 156" fill="none" xmlns="http://www.w3.org/2000/svg">
<g id="Frame" clip-path="url(#clip0_8_470)">
<g id="Vector">
</g>
<path id="Vector_2" d="M39 136.5H78" stroke="var(--stroke-0, #E1FCAD)" stroke-width="7" stroke-linecap="round"/>
<path id="Vector_3" d="M58.5 136.5V19.5L19.5 58.5H136.5" stroke="var(--stroke-0, #E1FCAD)" stroke-width="7" stroke-linecap="round"/>
<path id="Vector_4" d="M58.5 19.5L123.5 58.5" stroke="var(--stroke-0, #E1FCAD)" stroke-width="7" stroke-linecap="round"/>
<path id="Vector_5" d="M110.5 58.5V84.5C113.071 84.5 115.585 85.2624 117.722 86.6909C119.86 88.1194 121.526 90.1497 122.51 92.5251C123.494 94.9006 123.752 97.5144 123.25 100.036C122.749 102.558 121.51 104.874 119.692 106.692C117.874 108.51 115.558 109.749 113.036 110.25C110.514 110.752 107.901 110.494 105.525 109.51C103.15 108.526 101.119 106.86 99.6909 104.722C98.2624 102.585 97.5 100.071 97.5 97.5" stroke="var(--stroke-0, #E1FCAD)" stroke-width="7" stroke-linecap="round"/>
</g>
<defs>
<clipPath id="clip0_8_470">
<rect width="156" height="156" fill="white"/>
</clipPath>
</defs>
</svg>
