<svg preserveAspectRatio="none" width="100%" height="100%" overflow="visible" style="display: block;" viewBox="0 0 57.6533 97.0316" fill="none" xmlns="http://www.w3.org/2000/svg">
<g id="Black">
<path id="Vector" d="M22.0553 96.75C12.4207 95.9143 4.19917 93.3429 1.43725 90.2571C0.281091 88.9714 0.216861 87.1714 0.0241684 57.2786C-0.0400624 39.9214 0.0241684 25.0714 0.216861 24.3C0.666476 22.3071 3.49263 19.8 6.7684 18.45C8.88801 17.6143 9.53032 17.0357 9.53032 15.8786C9.53032 13.4357 10.6222 12.0857 12.9988 11.6357C15.1826 11.1857 15.9534 10.2857 15.9534 7.97143C15.9534 7.32857 16.2103 6.75 16.5315 6.75C16.9169 6.75 17.238 5.20714 17.3665 3.40714L17.5592 8.71931e-07H20.1284H22.6976L22.8903 3.40714C23.0188 5.20714 23.3399 6.75 23.7253 6.75C24.0465 6.75 24.3034 7.45714 24.3034 8.35714C24.3034 9.9 24.4319 9.96429 28.4784 9.96429C32.3965 9.96429 32.6534 9.83571 33.0388 8.35714C33.2315 7.45714 33.6811 6.75 34.0022 6.75C34.2592 6.75 34.5803 5.20714 34.7088 3.34286L34.9015 8.71931e-07H37.4707H40.0399L40.2326 3.21429C40.3611 4.95 40.7465 6.55714 41.0676 6.81429C41.453 7.00714 41.7742 8.03571 41.8384 9C41.9669 10.5429 42.3522 10.9286 44.2149 11.4429C46.8484 12.0857 48.0688 13.4357 48.0688 15.6857C48.0688 17.1 48.7111 17.6143 51.9226 19.1571C58.0888 22.05 57.7676 19.8 57.5749 56.9571L57.3822 89.1643L55.1984 91.0286C49.9315 95.4 35.2869 97.9071 22.0553 96.75ZM42.6734 94.2429C45.8207 93.6 49.6746 92.4429 51.0876 91.6714C56.1619 89.1 55.7765 92.0571 55.7765 55.9286V23.5286L53.5284 21.8571C50.3811 19.4143 44.4076 17.6786 35.9934 16.8429C23.4684 15.6214 8.50263 17.9357 3.74955 21.9214L1.82263 23.5929V55.9286C1.82263 92.5714 1.30878 89.2929 7.41071 92.0571C14.8615 95.4643 31.6257 96.4929 42.6734 94.2429ZM17.238 15.75C25.0742 14.5286 39.783 15.0429 45.6922 16.7786C47.5549 17.3571 46.7842 14.3357 44.8572 13.3714C39.2692 10.7357 15.1184 11.1214 11.6499 13.95C10.3653 14.9786 10.6222 17.1643 11.9711 16.7786C12.5492 16.5857 14.9257 16.1357 17.238 15.75ZM22.3122 10.0286C22.8261 9.70714 23.0188 9 22.8261 8.35714C22.5049 7.58571 21.7342 7.39286 19.9999 7.52143C18.0088 7.65 17.4949 7.97143 17.3665 9.19286C17.1738 10.4143 17.4307 10.6071 19.2934 10.6071C20.4496 10.6071 21.7984 10.35 22.3122 10.0286ZM40.2326 9.19286C40.1042 7.97143 39.5903 7.65 37.5992 7.52143C35.8649 7.39286 35.0942 7.58571 34.773 8.35714C34.2592 9.77143 35.608 10.6071 38.3057 10.6071C40.1684 10.6071 40.4253 10.4143 40.2326 9.19286ZM21.0919 3.85714C21.0919 2.31429 20.7707 1.60714 20.1284 1.60714C19.4861 1.60714 19.1649 2.31429 19.1649 3.85714C19.1649 5.4 19.4861 6.10714 20.1284 6.10714C20.7707 6.10714 21.0919 5.4 21.0919 3.85714ZM38.4342 3.85714C38.4342 2.31429 38.113 1.60714 37.4707 1.60714C36.8284 1.60714 36.5072 2.31429 36.5072 3.85714C36.5072 5.4 36.8284 6.10714 37.4707 6.10714C38.113 6.10714 38.4342 5.4 38.4342 3.85714Z" fill="var(--fill-0, #E1FCAD)"/>
<path id="Vector_2" d="M22.8261 80.3571C15.6323 75.4071 17.0453 64.7357 25.3953 61.3929C28.8638 60.0429 33.103 61.0714 35.9292 63.9C42.9946 70.9714 38.6911 81.9643 28.7996 81.9643C26.0377 81.9643 24.6888 81.5786 22.8261 80.3571ZM32.525 79.7786C35.865 78.0429 37.3423 75.7929 37.5992 72.1929C37.9204 68.1429 36.443 65.25 33.1673 63.5786C27.0653 60.4286 19.8073 64.6071 19.8073 71.3571C19.8073 77.9143 26.9369 82.6714 32.525 79.7786Z" fill="var(--fill-0, #E1FCAD)"/>
<path id="Vector_3" d="M26.423 78.0429C23.5969 77.2071 21.4773 73.6714 21.9269 70.5214C22.9546 64.2214 31.3046 62.55 34.5803 67.95C38.113 73.7357 33.103 79.9071 26.423 78.0429ZM31.6257 76.2429C31.8184 75.9857 31.2403 75.0214 30.4053 74.25C28.7996 72.7714 28.2857 71.0357 29.3777 71.0357C29.6346 71.0357 30.4696 71.7429 31.1119 72.6429C32.8461 75.0214 33.938 74.7 33.938 71.8071C33.938 67.4357 30.0842 64.8643 26.3588 66.7929C24.175 67.8857 23.6611 68.9143 23.6611 72C23.6611 73.5429 24.1107 74.5071 25.3311 75.4714C27.0653 76.8214 30.9834 77.3357 31.6257 76.2429Z" fill="var(--fill-0, #E1FCAD)"/>
</g>
</svg>
