<svg preserveAspectRatio="none" width="100%" height="100%" overflow="visible" style="display: block;" viewBox="0 0 129 129" fill="none" xmlns="http://www.w3.org/2000/svg">
<g id="Frame" clip-path="url(#clip0_8_342)">
<g id="Vector">
</g>
<path id="Vector_2" fill-rule="evenodd" clip-rule="evenodd" d="M59.7128 19.8295L91.0708 44.6705L97.2278 64.4995L67.893 70.104L33.8327 39.0526L41.0677 24.1915L59.7128 19.8295Z" stroke="var(--stroke-0, #E1FCAD)" stroke-width="4"/>
<path id="Vector_3" d="M41.0672 24.1914L71.1817 49.9918" stroke="var(--stroke-0, #E1FCAD)" stroke-width="4" stroke-linecap="round"/>
<path id="Vector_4" d="M67.893 70.104L71.1822 48.7308L91.0705 44.6705" stroke="var(--stroke-0, #E1FCAD)" stroke-width="4" stroke-linecap="round"/>
<path id="Vector_5" d="M67.1687 83.3738L73.3128 102.402L41.9277 108.517L10.75 77.9751L17.6583 60.8055L32.3266 57.3875" stroke="var(--stroke-0, #E1FCAD)" stroke-width="4" stroke-linecap="round"/>
<path id="Vector_6" d="M17.6584 60.8047L46.4507 88.0363" stroke="var(--stroke-0, #E1FCAD)" stroke-width="4" stroke-linecap="round"/>
<path id="Vector_7" d="M41.928 107.137L46.995 86.3558L67.1628 83.4294" stroke="var(--stroke-0, #E1FCAD)" stroke-width="4" stroke-linecap="round"/>
<path id="Vector_8" fill-rule="evenodd" clip-rule="evenodd" d="M93.7583 79.5707L91.375 98.8997L116.197 94.0585L110.943 75.7539L93.7583 79.5707Z" stroke="var(--stroke-0, #E1FCAD)" stroke-width="4"/>
</g>
<defs>
<clipPath id="clip0_8_342">
<rect width="129" height="129" fill="white"/>
</clipPath>
</defs>
</svg>
