<svg preserveAspectRatio="none" width="100%" height="100%" overflow="visible" style="display: block;" viewBox="0 0 86.6294 86.6294" fill="none" xmlns="http://www.w3.org/2000/svg">
<g id="Frame" clip-path="url(#clip0_8_388)">
<path id="Vector" fill-rule="evenodd" clip-rule="evenodd" d="M34.3283 2.88765L33.8317 5.40976L31.9316 14.6385C28.8938 15.7985 26.139 17.4435 23.6498 19.3943L14.3631 16.2892L11.8683 15.5158L10.5746 17.7436L4.18131 28.4323L2.88765 30.6604L4.78196 32.3168L11.9665 38.4287C11.7066 40.0274 11.3716 41.6087 11.3716 43.2882C11.3716 44.9677 11.7066 46.5494 11.9665 48.1481L4.78196 54.26L2.88765 55.9164L4.18131 58.1439L10.5746 68.8334L11.8683 71.0667L14.3631 70.2876L23.6498 67.1828C26.139 69.1331 28.8938 70.7779 31.9316 71.9382L33.8317 81.1665L34.3283 83.6892H52.2953L52.7977 81.1665L54.692 71.9382C57.7298 70.7779 60.4846 69.1331 62.9738 67.1828L72.2604 70.2876L74.7554 71.0667L76.0548 68.8334L82.4423 58.1439L83.7417 55.9164L81.8416 54.26L74.6572 48.1481C74.9228 46.5494 75.252 44.9677 75.252 43.2882C75.252 41.6087 74.9228 40.0274 74.6572 38.4287L81.8416 32.3168L83.7417 30.6604L82.4423 28.4323L76.0548 17.7436L74.7554 15.5158L72.2604 16.2892L62.9738 19.3943C60.4846 17.4435 57.7298 15.7985 54.692 14.6385L52.7977 5.40976L52.2953 2.88765H34.3283Z" stroke="var(--stroke-0, #E1FCAD)" stroke-width="4" stroke-linecap="square"/>
<path id="Vector_2" fill-rule="evenodd" clip-rule="evenodd" d="M54.8631 43.2882C54.8631 49.66 49.6885 54.8314 43.3125 54.8314C36.9366 54.8314 31.762 49.66 31.762 43.2882C31.762 36.9165 36.9366 31.7454 43.3125 31.7454C49.6885 31.7454 54.8631 36.9165 54.8631 43.2882Z" stroke="var(--stroke-0, #E1FCAD)" stroke-width="5" stroke-linecap="square"/>
</g>
<defs>
<clipPath id="clip0_8_388">
<rect width="86.6294" height="86.6294" fill="white"/>
</clipPath>
</defs>
</svg>
