<svg preserveAspectRatio="none" width="100%" height="100%" overflow="visible" style="display: block;" viewBox="0 0 83.8769 83.8769" fill="none" xmlns="http://www.w3.org/2000/svg">
<g id="Frame" clip-path="url(#clip0_8_432)">
<path id="Vector" fill-rule="evenodd" clip-rule="evenodd" d="M33.2376 2.7959L32.7567 5.23787L30.9171 14.1733C27.9758 15.2966 25.3084 16.8893 22.8984 18.7781L13.9068 15.7716L11.4912 15.0228L10.2386 17.1798L4.04845 27.5289L2.7959 29.6863L4.63002 31.29L11.5862 37.2077C11.3346 38.7556 11.0103 40.2867 11.0103 41.9128C11.0103 43.539 11.3346 45.0704 11.5862 46.6183L4.63002 52.536L2.7959 54.1398L4.04845 56.2965L10.2386 66.6463L11.4912 68.8087L13.9068 68.0543L22.8984 65.0482C25.3084 66.9365 27.9758 68.5291 30.9171 69.6525L32.7567 78.5876L33.2376 81.0301H50.6337L51.1202 78.5876L52.9543 69.6525C55.8955 68.5291 58.5628 66.9365 60.9729 65.0482L69.9645 68.0543L72.3801 68.8087L73.6383 66.6463L79.8228 56.2965L81.081 54.1398L79.2413 52.536L72.2851 46.6183C72.5423 45.0704 72.861 43.539 72.861 41.9128C72.861 40.2867 72.5423 38.7556 72.2851 37.2077L79.2413 31.29L81.081 29.6863L79.8228 27.5289L73.6383 17.1798L72.3801 15.0228L69.9645 15.7716L60.9729 18.7781C58.5628 16.8893 55.8955 15.2966 52.9543 14.1733L51.1202 5.23787L50.6337 2.7959H33.2376Z" stroke="var(--stroke-0, #E1FCAD)" stroke-width="4" stroke-linecap="square"/>
<path id="Vector_2" fill-rule="evenodd" clip-rule="evenodd" d="M53.1199 41.9128C53.1199 48.0821 48.1097 53.0892 41.9364 53.0892C35.763 53.0892 30.7528 48.0821 30.7528 41.9128C30.7528 35.7435 35.763 30.7368 41.9364 30.7368C48.1097 30.7368 53.1199 35.7435 53.1199 41.9128Z" stroke="var(--stroke-0, #E1FCAD)" stroke-width="5" stroke-linecap="square"/>
</g>
<defs>
<clipPath id="clip0_8_432">
<rect width="83.8769" height="83.8769" fill="white"/>
</clipPath>
</defs>
</svg>
