<svg preserveAspectRatio="none" width="100%" height="100%" overflow="visible" style="display: block;" viewBox="0 0 166.289 150.872" fill="none" xmlns="http://www.w3.org/2000/svg">
<g id="Group 254">
<path id="Vector" d="M105.82 43.104C104.093 44.0698 102.654 45.4778 101.653 47.1829C100.651 48.888 100.124 50.8287 100.124 52.805C100.124 54.7814 100.651 56.722 101.653 58.4272C102.654 60.1323 104.093 61.5402 105.82 62.5061L102.026 75.2095C99.9754 74.8558 97.8666 75.0828 95.9388 75.8646C94.0109 76.6464 92.3412 77.9517 91.119 79.6325C89.8968 81.3134 89.1711 83.3024 89.0241 85.3739C88.8771 87.4455 89.3147 89.5168 90.2874 91.3527L79.3803 99.8166C77.9358 98.6353 76.2166 97.8356 74.3812 97.4912C72.5457 97.1467 70.653 97.2686 68.8771 97.8456C67.1012 98.4226 65.4993 99.4362 64.2189 100.793C62.9384 102.15 62.0205 103.806 61.5496 105.61L44.1346 105.565C43.657 103.772 42.7373 102.127 41.4594 100.78C40.1814 99.4335 38.586 98.4273 36.8185 97.8535C35.051 97.2798 33.1677 97.1568 31.3403 97.4957C29.513 97.8346 27.7997 98.6247 26.3568 99.794L15.4573 91.2622C16.404 89.4334 16.823 87.3782 16.6678 85.3257C16.5125 83.2732 15.7891 81.304 14.5781 79.6378C13.3671 77.9716 11.7162 76.6739 9.80943 75.8893C7.90268 75.1047 5.81504 74.8641 3.7793 75.1944L0 62.4457C1.69718 61.4708 3.10691 60.0667 4.08715 58.3748C5.06739 56.683 5.58351 54.7631 5.58351 52.8088C5.58351 50.8545 5.06739 48.9346 4.08715 47.2428C3.10691 45.5509 1.69718 44.1468 0 43.1719L3.7793 30.4232C5.81504 30.7535 7.90268 30.5129 9.80943 29.7283C11.7162 28.9437 13.3671 27.646 14.5781 25.9798C15.7891 24.3136 16.5125 22.3444 16.6678 20.2919C16.823 18.2394 16.404 16.1842 15.4573 14.3554L26.3568 5.80855C27.7998 6.97952 29.5136 7.77109 31.3419 8.11101C33.1702 8.45092 35.0547 8.32835 36.8234 7.75448C38.592 7.18061 40.1884 6.17372 41.4669 4.82575C42.7453 3.47778 43.6651 1.83167 44.1422 0.0377179L61.5496 0C62.021 1.80237 62.9389 3.45755 64.2189 4.81334C65.4988 6.16913 67.0997 7.18203 68.8744 7.7589C70.6492 8.33578 72.5407 8.45812 74.3752 8.11468C76.2097 7.77124 77.9282 6.97304 79.3728 5.79347L90.2874 14.2574C89.3147 16.0933 88.8771 18.1645 89.0241 20.2361C89.1711 22.3077 89.8968 24.2967 91.119 25.9775C92.3412 27.6583 94.0109 28.9637 95.9388 29.7455C97.8666 30.5273 99.9754 30.7542 102.026 30.4006L105.82 43.104ZM52.9102 75.4358C55.888 75.4358 58.8366 74.8504 61.5878 73.7131C64.339 72.5758 66.8387 70.9088 68.9444 68.8074C71.05 66.7059 72.7203 64.2111 73.8598 61.4654C74.9994 58.7197 75.5859 55.7769 75.5859 52.805C75.5859 49.8331 74.9994 46.8903 73.8598 44.1446C72.7203 41.3989 71.05 38.9041 68.9444 36.8027C66.8387 34.7012 64.339 33.0343 61.5878 31.897C58.8366 30.7597 55.888 30.1743 52.9102 30.1743C46.8962 30.1743 41.1285 32.5586 36.876 36.8027C32.6234 41.0468 30.2344 46.803 30.2344 52.805C30.2344 58.8071 32.6234 64.5633 36.876 68.8074C41.1285 73.0515 46.8962 75.4358 52.9102 75.4358ZM108.791 75.8959C112.81 66.2235 114.23 55.6719 112.91 45.2841L122.026 45.2615C122.497 47.0638 123.415 48.719 124.695 50.0748C125.975 51.4306 127.576 52.4435 129.351 53.0204C131.125 53.5972 133.017 53.7196 134.852 53.3761C136.686 53.0327 138.405 52.2345 139.849 51.0549L150.764 59.5188C149.791 61.3548 149.353 63.426 149.5 65.4976C149.647 67.5692 150.373 69.5582 151.595 71.239C152.818 72.9198 154.487 74.2251 156.415 75.0069C158.343 75.7887 160.452 76.0157 162.502 75.6621L166.289 88.3654C164.561 89.3313 163.123 90.7392 162.121 92.4444C161.12 94.1495 160.592 96.0901 160.592 98.0665C160.592 100.043 161.12 101.983 162.121 103.689C163.123 105.394 164.561 106.802 166.289 107.768L162.495 120.471C160.444 120.117 158.335 120.344 156.408 121.126C154.48 121.908 152.81 123.213 151.588 124.894C150.366 126.575 149.64 128.564 149.493 130.635C149.346 132.707 149.783 134.778 150.756 136.614L139.849 145.078C138.405 143.897 136.685 143.097 134.85 142.753C133.014 142.408 131.122 142.53 129.346 143.107C127.57 143.684 125.968 144.698 124.688 146.054C123.407 147.411 122.489 149.068 122.018 150.872L104.603 150.826C104.126 149.034 103.206 147.389 101.928 146.042C100.65 144.695 99.0547 143.689 97.2872 143.115C95.5197 142.541 93.6364 142.418 91.8091 142.757C89.9817 143.096 88.2685 143.886 86.8256 145.055L75.9261 136.524C76.8727 134.695 77.2918 132.64 77.1365 130.587C76.9813 128.535 76.2578 126.565 75.0468 124.899C73.8358 123.233 72.1849 121.935 70.2782 121.151C68.3714 120.366 66.2838 120.126 64.248 120.456L61.8898 112.49C72.4701 110.916 82.4393 106.557 90.7711 99.8619C91.1379 104.443 92.8932 108.803 95.8037 112.364C98.7142 115.925 102.642 118.517 107.065 119.796C111.487 121.075 116.195 120.98 120.562 119.523C124.929 118.067 128.748 115.318 131.512 111.642C134.276 107.967 135.853 103.539 136.033 98.9469C136.214 94.3551 134.989 89.8172 132.523 85.9368C130.056 82.0564 126.465 79.0173 122.225 77.2237C117.986 75.4301 113.3 74.9669 108.791 75.8959Z" fill="var(--fill-0, #E1FCAD)"/>
</g>
</svg>
