<svg preserveAspectRatio="none" width="100%" height="100%" overflow="visible" style="display: block;" viewBox="0 0 112 112" fill="none" xmlns="http://www.w3.org/2000/svg">
<g id="Frame" clip-path="url(#clip0_8_477)">
<path id="Vector" d="M0 3.5C0 2.57174 0.368749 1.6815 1.02513 1.02513C1.6815 0.368749 2.57174 0 3.5 0L108.5 0C109.428 0 110.318 0.368749 110.975 1.02513C111.631 1.6815 112 2.57174 112 3.5V24.5C112 25.4283 111.631 26.3185 110.975 26.9749C110.318 27.6313 109.428 28 108.5 28H98V42H108.5C109.428 42 110.318 42.3687 110.975 43.0251C111.631 43.6815 112 44.5717 112 45.5V66.5C112 67.4283 111.631 68.3185 110.975 68.9749C110.318 69.6313 109.428 70 108.5 70H98V84H108.5C109.428 84 110.318 84.3687 110.975 85.0251C111.631 85.6815 112 86.5717 112 87.5V108.5C112 109.428 111.631 110.318 110.975 110.975C110.318 111.631 109.428 112 108.5 112H3.5C2.57174 112 1.6815 111.631 1.02513 110.975C0.368749 110.318 0 109.428 0 108.5V87.5C0 86.5717 0.368749 85.6815 1.02513 85.0251C1.6815 84.3687 2.57174 84 3.5 84H14V70H3.5C2.57174 70 1.6815 69.6313 1.02513 68.9749C0.368749 68.3185 0 67.4283 0 66.5V45.5C0 44.5717 0.368749 43.6815 1.02513 43.0251C1.6815 42.3687 2.57174 42 3.5 42H14V28H3.5C2.57174 28 1.6815 27.6313 1.02513 26.9749C0.368749 26.3185 0 25.4283 0 24.5V3.5ZM21 28V42H52.5V28H21ZM59.5 28V42H91V28H59.5ZM21 70V84H52.5V70H21ZM59.5 70V84H91V70H59.5ZM7 7V21H31.5V7H7ZM38.5 7V21H73.5V7H38.5ZM80.5 7V21H105V7H80.5ZM7 49V63H31.5V49H7ZM38.5 49V63H73.5V49H38.5ZM80.5 49V63H105V49H80.5ZM7 91V105H31.5V91H7ZM38.5 91V105H73.5V91H38.5ZM80.5 91V105H105V91H80.5Z" fill="var(--fill-0, #E1FCAD)"/>
</g>
<defs>
<clipPath id="clip0_8_477">
<rect width="112" height="112" fill="white"/>
</clipPath>
</defs>
</svg>
