<svg preserveAspectRatio="none" width="100%" height="100%" overflow="visible" style="display: block;" viewBox="0 0 79 79" fill="none" xmlns="http://www.w3.org/2000/svg">
<g id="Frame">
<path id="Vector" d="M14.8125 0V79H34.5625V64.1875H44.4375V79H64.1875V0H14.8125ZM29.625 59.25H19.75V49.375H29.625V59.25ZM29.625 44.4375H19.75V34.5625H29.625V44.4375ZM29.625 29.625H19.75V19.75H29.625V29.625ZM29.625 14.8125H19.75V4.9375H29.625V14.8125ZM44.4375 59.25H34.5625V49.375H44.4375V59.25ZM44.4375 44.4375H34.5625V34.5625H44.4375V44.4375ZM44.4375 29.625H34.5625V19.75H44.4375V29.625ZM44.4375 14.8125H34.5625V4.9375H44.4375V14.8125ZM59.25 59.25H49.375V49.375H59.25V59.25ZM59.25 44.4375H49.375V34.5625H59.25V44.4375ZM59.25 29.625H49.375V19.75H59.25V29.625ZM59.25 14.8125H49.375V4.9375H59.25V14.8125Z" fill="var(--fill-0, #E1FCAD)"/>
</g>
</svg>
