<svg preserveAspectRatio="none" width="100%" height="100%" overflow="visible" style="display: block;" viewBox="0 0 84 84" fill="none" xmlns="http://www.w3.org/2000/svg">
<g id="Frame" clip-path="url(#clip0_8_442)">
<g id="Vector">
</g>
<path id="Vector_2" fill-rule="evenodd" clip-rule="evenodd" d="M38.8827 12.9122L59.3019 29.0878L63.3111 41.9996L44.2094 45.6491L22.0306 25.4296L26.7417 15.7526L38.8827 12.9122Z" stroke="var(--stroke-0, #E1FCAD)" stroke-width="4"/>
<path id="Vector_3" d="M26.7414 15.7526L46.3509 32.5528" stroke="var(--stroke-0, #E1FCAD)" stroke-width="4" stroke-linecap="round"/>
<path id="Vector_4" d="M44.2094 45.6491L46.3512 31.7317L59.3017 29.0878" stroke="var(--stroke-0, #E1FCAD)" stroke-width="4" stroke-linecap="round"/>
<path id="Vector_5" d="M43.7378 54.2899L47.7386 66.6806L27.3018 70.6624L7 50.7745L11.4984 39.5943L21.0499 37.3686" stroke="var(--stroke-0, #E1FCAD)" stroke-width="4" stroke-linecap="round"/>
<path id="Vector_6" d="M11.4985 39.5938L30.247 57.326" stroke="var(--stroke-0, #E1FCAD)" stroke-width="4" stroke-linecap="round"/>
<path id="Vector_7" d="M27.3019 69.7634L30.6014 56.2317L43.7339 54.3261" stroke="var(--stroke-0, #E1FCAD)" stroke-width="4" stroke-linecap="round"/>
<path id="Vector_8" fill-rule="evenodd" clip-rule="evenodd" d="M61.0519 51.8135L59.5 64.3998L75.663 61.2474L72.2423 49.3281L61.0519 51.8135Z" stroke="var(--stroke-0, #E1FCAD)" stroke-width="4"/>
</g>
<defs>
<clipPath id="clip0_8_442">
<rect width="84" height="84" fill="white"/>
</clipPath>
</defs>
</svg>
