<svg preserveAspectRatio="none" width="100%" height="100%" overflow="visible" style="display: block;" viewBox="0 0 106 106" fill="none" xmlns="http://www.w3.org/2000/svg">
<g id="Frame">
<path id="Vector" d="M38.6458 8.83333C36.8164 8.83333 35.3333 10.3164 35.3333 12.1458V22.0833H25.3958C23.5664 22.0833 22.0833 23.5664 22.0833 25.3958V46.439L15.6327 48.8011C14.7622 49.1195 14.065 49.7886 13.7107 50.6455C13.3564 51.5019 13.3772 52.4678 13.7683 53.3087L24.0785 75.4716C24.8095 75.2304 25.5854 75.0961 26.3856 75.0842C29.8162 75.0334 32.8665 77.2497 33.8817 80.5211C33.8874 80.5379 33.9014 80.5794 33.9241 80.6413C33.9775 80.7883 34.0754 81.0419 34.2213 81.366C34.5222 82.0347 34.9756 82.8876 35.5818 83.6958C36.7988 85.3185 38.0729 86.125 39.75 86.125C41.4263 86.125 42.6982 85.3194 43.9133 83.698C44.5187 82.8902 44.9714 82.0378 45.2717 81.3696C45.4175 81.0454 45.5151 80.7919 45.5685 80.6452C45.591 80.583 45.6052 80.5419 45.6105 80.5247C46.6109 77.2956 49.5965 75.0882 52.9828 75.0833C56.369 75.0785 59.3609 77.2784 60.3701 80.5048C60.3758 80.5216 60.39 80.5631 60.4134 80.6267C60.4673 80.7742 60.5662 81.0286 60.7133 81.3537C61.0163 82.0241 61.4725 82.8792 62.0816 83.6901C63.3076 85.3216 64.5854 86.125 66.25 86.125C67.9138 86.125 69.1893 85.3225 70.4132 83.6923C71.0218 82.8818 71.4771 82.0272 71.7801 81.3572C71.9267 81.0321 72.0252 80.7777 72.0791 80.6307C72.1021 80.5679 72.1162 80.5264 72.122 80.5092C73.1435 77.2365 76.2016 75.0246 79.6352 75.0847C80.5503 75.1006 81.4332 75.2768 82.2529 75.5895L93.1524 53.3701C93.568 52.523 93.6024 51.5385 93.2473 50.664C92.8918 49.79 92.1807 49.1085 91.2916 48.7914L83.9167 46.1603V25.3958C83.9167 23.5664 82.4336 22.0833 80.6042 22.0833H70.6667V12.1458C70.6667 10.3164 69.1836 8.83333 67.3542 8.83333H38.6458ZM64.0417 22.0833H41.9583V15.4583H64.0417V22.0833ZM77.2917 28.7083V43.7963L57.872 36.8674C54.7141 35.7406 51.2612 35.7549 48.1125 36.9078L28.7083 44.013V28.7083H77.2917Z" fill="var(--fill-0, #E1FCAD)"/>
<path id="Vector_2" d="M82.7096 81.9888L82.6986 81.9504C82.3143 80.5264 81.0339 79.5265 79.5579 79.5004C78.0787 79.4744 76.7621 80.4328 76.3315 81.847L76.3297 81.8528L76.316 81.8934C76.2992 81.9442 76.2697 82.0308 76.2268 82.1487C76.1407 82.3841 76.0016 82.7396 75.8055 83.1747C75.4084 84.0531 74.798 85.2085 73.9452 86.3441C72.2359 88.6204 69.7966 90.5417 66.25 90.5417C62.703 90.5417 60.2619 88.62 58.5509 86.3432C57.6971 85.2072 57.0859 84.0518 56.6888 83.1733C56.4918 82.7383 56.3531 82.3828 56.2666 82.1469C56.2233 82.0294 56.1937 81.9424 56.1769 81.8916L56.1632 81.8501C56.1632 81.8505 56.1628 81.8492 56.1632 81.8501C55.7383 80.454 54.4487 79.4978 52.989 79.5C51.5297 79.5022 50.2436 80.4589 49.8222 81.8554L49.8209 81.8598L49.8076 81.9C49.7913 81.9508 49.7617 82.0374 49.7189 82.1549C49.6336 82.3903 49.4958 82.7454 49.3002 83.18C48.9058 84.058 48.298 85.2121 47.4478 86.3467C45.7447 88.6191 43.3077 90.5417 39.75 90.5417C36.1919 90.5417 33.7531 88.6186 32.0484 86.3458C31.1971 85.2107 30.5888 84.0567 30.1936 83.1786C29.998 82.7436 29.8599 82.3885 29.7742 82.1531C29.7314 82.0356 29.702 81.949 29.6853 81.8982L29.6691 81.8483C29.2397 80.4368 27.9275 79.4784 26.451 79.5004C24.9761 79.5221 23.6941 80.5163 23.3051 81.938L23.2933 81.9778C23.2795 82.0232 23.2542 82.1041 23.216 82.2158C23.1395 82.4397 23.013 82.7825 22.8276 83.2038C22.4533 84.0545 21.8595 85.1794 20.9892 86.2897C19.2924 88.4539 16.5909 90.5417 12.1458 90.5417C10.3164 90.5417 8.83333 92.0248 8.83333 93.8542C8.83333 95.6835 10.3164 97.1667 12.1458 97.1667C19.0957 97.1667 23.5714 93.7336 26.2029 90.3769C26.3053 90.2466 26.405 90.1159 26.5021 89.9856C26.5824 90.0973 26.6645 90.2091 26.7484 90.3208C29.1845 93.5689 33.3706 97.1667 39.75 97.1667C46.1299 97.1667 50.3147 93.5684 52.7491 90.3199C52.8348 90.2056 52.9183 90.0916 53.0004 89.9777C53.083 90.0925 53.1678 90.2082 53.2548 90.3235C55.6928 93.5675 59.8794 97.1667 66.25 97.1667C72.6206 97.1667 76.8063 93.5671 79.243 90.3226C79.3255 90.2117 79.4068 90.1018 79.4863 89.9913C79.5808 90.1185 79.678 90.2462 79.7778 90.3738C82.4075 93.7367 86.8856 97.1667 93.8542 97.1667C95.6836 97.1667 97.1667 95.6835 97.1667 93.8542C97.1667 92.0248 95.6836 90.5417 93.8542 90.5417C89.3836 90.5417 86.6846 88.4508 84.997 86.2928C84.13 85.1847 83.5408 84.0615 83.1698 83.2122C82.9861 82.7917 82.8611 82.4494 82.7856 82.2264C82.748 82.1151 82.7233 82.0343 82.7096 81.9888Z" fill="var(--fill-0, #E1FCAD)"/>
</g>
</svg>
